<svg width="52" height="78" viewBox="0 0 52 78" fill="none" xmlns="http://www.w3.org/2000/svg">
<path d="M26.3267 77.5909C21.7102 77.5909 17.7448 76.9635 14.4304 75.7088C11.116 74.4777 8.45265 72.8205 6.44034 70.7372C4.42803 68.6539 3.03125 66.3456 2.25 63.8125L13.8267 61.0071C14.3475 62.0724 15.1051 63.1259 16.0994 64.1676C17.0938 65.233 18.4313 66.1089 20.1122 66.7955C21.8168 67.5057 23.9593 67.8608 26.5398 67.8608C30.1856 67.8608 33.2041 66.973 35.5952 65.1974C37.9863 63.4455 39.1818 60.5573 39.1818 56.5327V46.1989H38.5426C37.8797 47.5246 36.9091 48.8859 35.6307 50.2827C34.3759 51.6795 32.7069 52.8513 30.6236 53.7983C28.5639 54.7453 25.9716 55.2188 22.8466 55.2188C18.6562 55.2188 14.8565 54.2363 11.4474 52.2713C8.06203 50.2827 5.36316 47.3234 3.35085 43.3935C1.36222 39.4399 0.367898 34.492 0.367898 28.5497C0.367898 22.5601 1.36222 17.5057 3.35085 13.3864C5.36316 9.24337 8.07386 6.10653 11.483 3.97585C14.892 1.8215 18.6918 0.744319 22.8821 0.744319C26.0781 0.744319 28.706 1.28883 30.7656 2.37784C32.849 3.44318 34.5062 4.73343 35.7372 6.24858C36.9683 7.74006 37.9034 9.14867 38.5426 10.4744H39.2528V1.45454H51.9304V56.8878C51.9304 61.5516 50.8177 65.4105 48.5923 68.4645C46.367 71.5185 43.3248 73.803 39.4659 75.3182C35.607 76.8333 31.2273 77.5909 26.3267 77.5909ZM26.4332 45.1335C29.1558 45.1335 31.4759 44.4706 33.3935 43.1449C35.3111 41.8191 36.767 39.9134 37.7614 37.4276C38.7557 34.9418 39.2528 31.9588 39.2528 28.4787C39.2528 25.0459 38.7557 22.0393 37.7614 19.4588C36.7907 16.8783 35.3466 14.8778 33.429 13.4574C31.535 12.0133 29.2031 11.2912 26.4332 11.2912C23.5687 11.2912 21.1776 12.0369 19.2599 13.5284C17.3423 15.0199 15.8982 17.0677 14.9276 19.6719C13.9569 22.2524 13.4716 25.188 13.4716 28.4787C13.4716 31.8168 13.9569 34.7405 14.9276 37.25C15.9219 39.7358 17.3778 41.6771 19.2955 43.0739C21.2367 44.447 23.616 45.1335 26.4332 45.1335Z" fill="#7284FC"/>
</svg>
