<svg width="306" height="99" viewBox="0 0 306 99" fill="none" xmlns="http://www.w3.org/2000/svg">
<path d="M26.3267 98.5909C21.7102 98.5909 17.7448 97.9635 14.4304 96.7088C11.116 95.4777 8.45265 93.8205 6.44034 91.7372C4.42803 89.6539 3.03125 87.3456 2.25 84.8125L13.8267 82.0071C14.3475 83.0724 15.1051 84.1259 16.0994 85.1676C17.0938 86.233 18.4313 87.1089 20.1122 87.7955C21.8168 88.5057 23.9593 88.8608 26.5398 88.8608C30.1856 88.8608 33.2041 87.973 35.5952 86.1974C37.9863 84.4455 39.1818 81.5573 39.1818 77.5327V67.1989H38.5426C37.8797 68.5246 36.9091 69.8859 35.6307 71.2827C34.3759 72.6795 32.7069 73.8513 30.6236 74.7983C28.5639 75.7453 25.9716 76.2188 22.8466 76.2188C18.6562 76.2188 14.8565 75.2363 11.4474 73.2713C8.06203 71.2827 5.36316 68.3234 3.35085 64.3935C1.36222 60.4399 0.367898 55.492 0.367898 49.5497C0.367898 43.5601 1.36222 38.5057 3.35085 34.3864C5.36316 30.2434 8.07386 27.1065 11.483 24.9759C14.892 22.8215 18.6918 21.7443 22.8821 21.7443C26.0781 21.7443 28.706 22.2888 30.7656 23.3778C32.849 24.4432 34.5062 25.7334 35.7372 27.2486C36.9683 28.7401 37.9034 30.1487 38.5426 31.4744H39.2528V22.4545H51.9304V77.8878C51.9304 82.5516 50.8177 86.4105 48.5923 89.4645C46.367 92.5185 43.3248 94.803 39.4659 96.3182C35.607 97.8333 31.2273 98.5909 26.3267 98.5909ZM26.4332 66.1335C29.1558 66.1335 31.4759 65.4706 33.3935 64.1449C35.3111 62.8191 36.767 60.9134 37.7614 58.4276C38.7557 55.9418 39.2528 52.9588 39.2528 49.4787C39.2528 46.0459 38.7557 43.0393 37.7614 40.4588C36.7907 37.8783 35.3466 35.8778 33.429 34.4574C31.535 33.0133 29.2031 32.2912 26.4332 32.2912C23.5687 32.2912 21.1776 33.0369 19.2599 34.5284C17.3423 36.0199 15.8982 38.0677 14.9276 40.6719C13.9569 43.2524 13.4716 46.188 13.4716 49.4787C13.4716 52.8168 13.9569 55.7405 14.9276 58.25C15.9219 60.7358 17.3778 62.6771 19.2955 64.0739C21.2367 65.447 23.616 66.1335 26.4332 66.1335ZM65.1051 77V22.4545H77.9602V77H65.1051ZM71.5682 14.7131C69.5322 14.7131 67.7803 14.0384 66.3125 12.6889C64.8447 11.3158 64.1108 9.67045 64.1108 7.75284C64.1108 5.81155 64.8447 4.16619 66.3125 2.81676C67.7803 1.44365 69.5322 0.7571 71.5682 0.7571C73.6278 0.7571 75.3797 1.44365 76.8239 2.81676C78.2917 4.16619 79.0256 5.81155 79.0256 7.75284C79.0256 9.67045 78.2917 11.3158 76.8239 12.6889C75.3797 14.0384 73.6278 14.7131 71.5682 14.7131ZM104.034 45.0398V77H91.1793V22.4545H103.466V31.723H104.105C105.36 28.669 107.361 26.2424 110.107 24.4432C112.877 22.6439 116.298 21.7443 120.37 21.7443C124.134 21.7443 127.413 22.5492 130.206 24.1591C133.024 25.7689 135.202 28.1009 136.74 31.1548C138.303 34.2088 139.072 37.9138 139.049 42.2699V77H126.194V44.2585C126.194 40.6127 125.247 37.7599 123.353 35.7003C121.482 33.6406 118.89 32.6108 115.576 32.6108C113.327 32.6108 111.326 33.108 109.574 34.1023C107.846 35.0729 106.485 36.4815 105.49 38.3281C104.52 40.1747 104.034 42.4119 104.034 45.0398ZM175.838 98.5909C171.222 98.5909 167.257 97.9635 163.942 96.7088C160.628 95.4777 157.964 93.8205 155.952 91.7372C153.94 89.6539 152.543 87.3456 151.762 84.8125L163.338 82.0071C163.859 83.0724 164.617 84.1259 165.611 85.1676C166.605 86.233 167.943 87.1089 169.624 87.7955C171.328 88.5057 173.471 88.8608 176.051 88.8608C179.697 88.8608 182.716 87.973 185.107 86.1974C187.498 84.4455 188.694 81.5573 188.694 77.5327V67.1989H188.054C187.391 68.5246 186.421 69.8859 185.142 71.2827C183.888 72.6795 182.219 73.8513 180.135 74.7983C178.076 75.7453 175.483 76.2188 172.358 76.2188C168.168 76.2188 164.368 75.2363 160.959 73.2713C157.574 71.2827 154.875 68.3234 152.863 64.3935C150.874 60.4399 149.88 55.492 149.88 49.5497C149.88 43.5601 150.874 38.5057 152.863 34.3864C154.875 30.2434 157.586 27.1065 160.995 24.9759C164.404 22.8215 168.203 21.7443 172.394 21.7443C175.59 21.7443 178.218 22.2888 180.277 23.3778C182.361 24.4432 184.018 25.7334 185.249 27.2486C186.48 28.7401 187.415 30.1487 188.054 31.4744H188.765V22.4545H201.442V77.8878C201.442 82.5516 200.329 86.4105 198.104 89.4645C195.879 92.5185 192.837 94.803 188.978 96.3182C185.119 97.8333 180.739 98.5909 175.838 98.5909ZM175.945 66.1335C178.667 66.1335 180.988 65.4706 182.905 64.1449C184.823 62.8191 186.279 60.9134 187.273 58.4276C188.267 55.9418 188.765 52.9588 188.765 49.4787C188.765 46.0459 188.267 43.0393 187.273 40.4588C186.302 37.8783 184.858 35.8778 182.941 34.4574C181.047 33.0133 178.715 32.2912 175.945 32.2912C173.08 32.2912 170.689 33.0369 168.772 34.5284C166.854 36.0199 165.41 38.0677 164.439 40.6719C163.469 43.2524 162.983 46.188 162.983 49.4787C162.983 52.8168 163.469 55.7405 164.439 58.25C165.434 60.7358 166.89 62.6771 168.807 64.0739C170.748 65.447 173.128 66.1335 175.945 66.1335ZM238.765 78.0653C233.296 78.0653 228.573 76.929 224.596 74.6562C220.642 72.3598 217.6 69.1165 215.469 64.9261C213.338 60.7121 212.273 55.7524 212.273 50.0469C212.273 44.4361 213.338 39.5118 215.469 35.2741C217.623 31.0128 220.63 27.6984 224.489 25.331C228.348 22.9399 232.882 21.7443 238.09 21.7443C241.452 21.7443 244.624 22.2888 247.607 23.3778C250.614 24.4432 253.265 26.1004 255.561 28.3494C257.882 30.5985 259.704 33.4631 261.03 36.9432C262.356 40.3996 263.019 44.5189 263.019 49.3011V53.2429H218.31V44.5781H250.696C250.673 42.116 250.14 39.9261 249.098 38.0085C248.057 36.0672 246.601 34.5402 244.73 33.4276C242.884 32.3149 240.73 31.7585 238.267 31.7585C235.64 31.7585 233.331 32.3977 231.343 33.6761C229.354 34.9309 227.803 36.5881 226.691 38.6477C225.602 40.6837 225.045 42.9209 225.022 45.3594V52.9233C225.022 56.0956 225.602 58.8182 226.762 61.0909C227.922 63.34 229.543 65.0682 231.627 66.2756C233.71 67.4593 236.149 68.0511 238.942 68.0511C240.812 68.0511 242.505 67.7907 244.02 67.2699C245.535 66.7254 246.849 65.9323 247.962 64.8906C249.075 63.849 249.915 62.5587 250.483 61.0199L262.486 62.3693C261.729 65.5417 260.284 68.3116 258.154 70.679C256.047 73.0227 253.348 74.8456 250.057 76.1477C246.766 77.4261 243.002 78.0653 238.765 78.0653ZM273.894 77V22.4545H286.359V31.5455H286.927C287.921 28.3968 289.626 25.9702 292.04 24.2656C294.479 22.5374 297.261 21.6733 300.386 21.6733C301.096 21.6733 301.889 21.7088 302.765 21.7798C303.665 21.8272 304.41 21.91 305.002 22.0284V33.8537C304.458 33.6643 303.594 33.4986 302.41 33.3565C301.25 33.1908 300.125 33.108 299.036 33.108C296.692 33.108 294.585 33.6169 292.715 34.6349C290.869 35.6293 289.413 37.0142 288.347 38.7898C287.282 40.5653 286.749 42.6132 286.749 44.9332V77H273.894Z" fill="#7284FC"/>
</svg>
